<?xml version="1.0" encoding="UTF-8"?>
<svg xmlns="http://www.w3.org/2000/svg" viewBox="0 0 1000 680" role="img" aria-label="Austria silhouette">
  <title>Austria silhouette</title>
  <desc>Country silhouette derived from Natural Earth public domain admin 0 countries data.</desc>
  <g fill="#8a8170" stroke="#6f6759" stroke-width="2.4" stroke-linejoin="round" opacity="0.48">
  <path d="M 944.0 294.1 L 935.0 342.4 L 868.3 342.7 L 891.3 368.3 L 852.0 444.6 L 829.4 464.5 L 725.8 467.5 L 666.1 494.4 L 568.3 485.2 L 399.0 454.6 L 372.5 413.4 L 255.5 434.0 L 241.7 456.5 L 170.0 439.7 L 109.6 436.5 L 56.0 414.9 L 74.1 385.9 L 69.5 364.9 L 105.3 358.4 L 165.2 391.3 L 182.0 360.0 L 286.5 365.1 L 371.1 343.8 L 427.9 347.5 L 464.8 371.7 L 475.8 351.6 L 459.1 274.4 L 501.6 259.4 L 543.4 204.8 L 631.3 242.9 L 697.9 194.5 L 739.6 185.6 L 831.5 221.8 L 887.1 215.6 L 941.7 238.0 L 932.2 253.0 L 944.0 294.1 Z" />
  </g>
</svg>
