<?xml version="1.0" encoding="UTF-8"?>
<svg xmlns="http://www.w3.org/2000/svg" viewBox="0 0 1000 680" role="img" aria-label="China silhouette">
  <title>China silhouette</title>
  <desc>Country silhouette derived from Natural Earth public domain admin 0 countries data.</desc>
  <g fill="#8a8170" stroke="#6f6759" stroke-width="2.4" stroke-linejoin="round" opacity="0.48">
  <path d="M 574.2 595.2 L 562.3 590.7 L 561.9 578.2 L 569.0 571.7 L 584.8 567.6 L 593.2 568.0 L 596.4 573.5 L 590.0 579.9 L 586.7 588.2 L 574.2 595.2 Z" />
  <path d="M 151.3 245.6 L 150.2 237.4 L 160.1 233.6 L 147.1 208.4 L 175.7 202.7 L 183.1 199.4 L 193.6 173.5 L 222.3 178.3 L 230.3 171.7 L 231.0 157.2 L 243.1 155.9 L 254.1 146.2 L 259.7 145.0 L 263.5 155.1 L 275.7 162.8 L 296.3 168.3 L 306.3 179.9 L 300.8 196.8 L 306.0 203.1 L 323.2 205.6 L 342.7 207.6 L 360.2 216.6 L 369.1 218.2 L 375.7 231.6 L 384.2 240.2 L 400.1 239.8 L 430.0 243.1 L 449.3 241.1 L 463.6 243.2 L 485.0 252.0 L 502.5 252.0 L 508.9 256.5 L 525.7 248.7 L 549.1 243.7 L 570.8 243.2 L 587.7 238.1 L 598.1 230.3 L 608.2 225.4 L 605.9 220.7 L 601.3 215.1 L 608.9 205.8 L 617.0 207.1 L 631.9 210.0 L 646.3 202.3 L 668.4 196.7 L 679.0 187.2 L 689.2 183.0 L 710.2 181.1 L 721.6 182.7 L 723.2 177.6 L 710.1 167.5 L 698.5 162.9 L 687.4 168.2 L 673.1 165.9 L 664.9 167.8 L 661.2 161.9 L 671.4 147.4 L 678.4 136.5 L 695.8 142.0 L 716.2 132.8 L 716.1 126.4 L 729.1 111.1 L 737.2 106.4 L 737.0 98.5 L 729.1 95.0 L 741.0 87.8 L 759.0 85.2 L 778.2 84.8 L 799.9 89.1 L 812.6 94.5 L 821.5 109.1 L 826.9 115.3 L 832.0 124.2 L 837.3 138.3 L 862.5 143.0 L 879.7 153.3 L 885.5 166.9 L 907.5 166.9 L 920.1 161.2 L 944.0 156.9 L 936.4 169.9 L 930.8 175.2 L 925.8 191.1 L 916.1 205.2 L 898.5 202.6 L 886.1 207.7 L 889.9 220.1 L 887.8 237.2 L 880.4 237.6 L 880.5 245.0 L 871.2 236.4 L 865.4 244.5 L 843.1 250.8 L 845.3 258.4 L 832.8 257.9 L 825.9 253.3 L 816.0 263.6 L 800.0 271.4 L 788.2 280.7 L 768.0 284.9 L 757.4 291.6 L 741.8 295.6 L 749.5 288.9 L 746.4 283.2 L 757.9 273.5 L 750.3 265.9 L 737.6 271.0 L 721.3 281.1 L 712.4 290.4 L 698.2 291.1 L 690.8 297.9 L 698.4 307.7 L 710.3 310.1 L 710.8 316.5 L 722.2 320.8 L 738.4 310.4 L 751.3 316.1 L 760.6 316.5 L 763.0 324.0 L 742.5 328.1 L 735.7 335.9 L 721.7 343.2 L 714.2 353.3 L 729.8 361.2 L 735.5 375.5 L 744.3 388.7 L 754.1 399.9 L 753.9 410.6 L 744.8 414.6 L 748.3 422.3 L 756.8 426.8 L 754.6 438.6 L 750.9 450.0 L 742.8 451.3 L 732.2 467.0 L 720.5 486.0 L 707.1 503.3 L 687.2 516.6 L 667.0 528.8 L 650.7 530.5 L 641.9 536.9 L 636.9 532.2 L 628.7 539.4 L 608.5 546.7 L 593.1 548.9 L 588.2 564.2 L 580.2 565.0 L 576.4 554.5 L 579.8 548.9 L 560.4 544.3 L 553.5 546.6 L 539.0 542.9 L 532.1 537.0 L 534.4 528.7 L 521.1 526.0 L 514.2 520.6 L 501.8 528.3 L 487.8 530.0 L 476.2 529.9 L 468.4 533.4 L 460.9 535.5 L 463.1 552.1 L 455.4 551.7 L 454.1 548.3 L 453.7 542.3 L 443.1 546.5 L 436.8 543.9 L 426.0 538.4 L 430.3 526.4 L 421.1 523.6 L 417.6 510.3 L 402.4 512.7 L 404.1 495.5 L 417.8 483.4 L 418.4 471.5 L 418.0 460.4 L 411.6 457.0 L 406.8 448.4 L 398.3 449.5 L 382.7 447.4 L 387.6 441.3 L 380.8 432.3 L 370.5 438.4 L 358.4 434.8 L 341.7 444.0 L 328.5 454.8 L 316.8 456.6 L 310.5 452.7 L 302.9 452.4 L 292.5 449.0 L 284.7 452.7 L 275.1 463.4 L 273.9 452.0 L 265.1 455.1 L 248.2 453.7 L 231.8 450.4 L 220.1 444.0 L 208.8 441.2 L 204.0 434.2 L 195.8 432.1 L 181.2 422.7 L 169.6 418.2 L 163.6 421.7 L 143.5 411.6 L 129.3 402.4 L 125.2 386.5 L 135.6 388.4 L 136.1 381.0 L 130.3 373.6 L 131.8 361.8 L 116.2 344.8 L 92.4 339.0 L 88.2 327.9 L 77.5 321.1 L 74.9 317.0 L 72.7 308.7 L 73.2 303.1 L 64.4 299.8 L 59.7 301.2 L 56.0 287.8 L 60.1 284.5 L 58.1 281.2 L 71.9 274.3 L 81.9 271.5 L 97.3 273.4 L 102.7 264.2 L 121.3 262.5 L 126.5 256.7 L 149.3 248.9 L 151.3 245.6 Z" />
  </g>
</svg>
