<?xml version="1.0" encoding="UTF-8"?>
<svg xmlns="http://www.w3.org/2000/svg" viewBox="0 0 1000 680" role="img" aria-label="France silhouette">
  <title>France silhouette</title>
  <desc>Country silhouette derived from Natural Earth public domain admin 0 countries data; overseas rings omitted for the travel route postcard crop.</desc>
  <g fill="#8a8170" stroke="#6f6759" stroke-width="2.4" stroke-linejoin="round" opacity="0.48">
  <path d="M 715.3 154.0 L 742.7 169.2 L 826.5 179.9 L 797.1 219.7 L 789.7 261.1 L 773.8 271.1 L 747.3 265.7 L 749.1 280.5 L 706.6 313.2 L 705.8 339.5 L 733.5 330.4 L 753.5 355.9 L 751.1 372.3 L 768.2 394.1 L 748.1 411.9 L 763.0 456.8 L 794.6 464.2 L 787.9 489.5 L 735.2 522.3 L 620.5 506.6 L 535.9 525.4 L 529.2 560.4 L 461.8 568.0 L 396.4 541.7 L 375.2 554.3 L 268.2 527.8 L 245.0 505.2 L 275.1 470.3 L 286.2 354.5 L 226.2 293.5 L 183.3 264.1 L 94.4 241.7 L 88.5 199.3 L 163.9 186.6 L 261.6 201.6 L 243.1 135.8 L 298.0 160.7 L 433.4 115.4 L 450.9 67.7 L 501.7 56.0 L 510.2 76.4 L 537.2 77.4 L 564.2 100.7 L 604.8 128.2 L 634.6 123.6 L 685.5 150.1 L 698.5 155.2 L 715.3 154.0 Z" />
  <path d="M 864.1 551.4 L 901.6 529.2 L 911.5 579.1 L 892.2 624.0 L 865.8 612.2 L 852.4 573.0 L 864.1 551.4 Z" />
  </g>
</svg>
