<?xml version="1.0" encoding="UTF-8"?>
<svg xmlns="http://www.w3.org/2000/svg" viewBox="0 0 1000 680" role="img" aria-label="Hungary silhouette">
  <title>Hungary silhouette</title>
  <desc>Country silhouette derived from Natural Earth public domain admin 0 countries data.</desc>
  <g fill="#8a8170" stroke="#6f6759" stroke-width="2.4" stroke-linejoin="round" opacity="0.48">
  <path d="M 858.7 172.1 L 934.5 209.2 L 944.0 245.8 L 860.7 274.4 L 796.1 366.9 L 713.6 459.5 L 604.2 485.2 L 519.1 479.2 L 414.5 515.0 L 414.5 515.0 L 363.5 535.4 L 250.8 509.2 L 148.8 450.7 L 105.5 433.9 L 79.0 387.8 L 56.0 386.3 L 101.3 298.5 L 74.9 268.9 L 151.7 268.6 L 162.1 212.9 L 231.5 247.8 L 281.8 262.7 L 396.3 246.0 L 407.3 218.6 L 461.5 214.5 L 528.0 193.3 L 542.7 202.1 L 606.8 185.0 L 638.8 152.9 L 683.5 144.6 L 829.6 186.1 L 858.7 172.1 Z" />
  </g>
</svg>
