<?xml version="1.0" encoding="UTF-8"?>
<svg xmlns="http://www.w3.org/2000/svg" viewBox="0 0 1000 680" role="img" aria-label="Italy silhouette">
  <title>Italy silhouette</title>
  <desc>Country silhouette derived from Natural Earth public domain admin 0 countries data.</desc>
  <g fill="#8a8170" stroke="#6f6759" stroke-width="2.4" stroke-linejoin="round" opacity="0.48">
  <path d="M 183.6 108.3 L 191.1 111.1 L 213.2 104.9 L 230.5 108.6 L 245.8 96.8 L 244.4 88.5 L 262.2 78.2 L 264.9 80.4 L 264.5 90.6 L 273.8 97.0 L 285.7 98.9 L 283.3 105.0 L 289.2 107.0 L 290.9 113.9 L 296.7 114.3 L 300.2 109.8 L 295.5 106.0 L 296.7 101.8 L 309.4 90.8 L 312.7 75.6 L 321.4 75.5 L 322.0 82.6 L 327.2 86.9 L 349.1 82.8 L 358.0 91.4 L 362.8 89.0 L 359.0 85.2 L 361.8 81.0 L 355.2 78.5 L 355.6 73.6 L 364.7 68.2 L 379.1 73.3 L 379.9 68.4 L 374.8 65.6 L 379.6 54.6 L 410.7 60.1 L 420.8 48.9 L 437.8 46.5 L 452.8 48.5 L 478.3 42.0 L 474.3 47.3 L 475.2 52.1 L 483.2 54.4 L 483.4 59.0 L 491.1 64.6 L 565.2 74.3 L 563.9 78.2 L 546.0 87.4 L 548.6 92.1 L 561.6 93.7 L 551.5 103.6 L 559.8 104.8 L 557.5 113.7 L 569.6 118.7 L 576.3 125.0 L 573.6 127.7 L 565.8 127.3 L 571.3 126.0 L 557.9 116.0 L 548.1 122.6 L 549.8 120.8 L 546.2 118.6 L 532.0 117.0 L 529.4 121.3 L 533.7 120.9 L 530.0 124.5 L 492.2 136.1 L 501.2 129.6 L 490.7 130.3 L 492.2 132.7 L 485.7 133.2 L 480.4 143.1 L 476.8 143.2 L 478.3 146.4 L 480.4 144.4 L 481.2 149.5 L 485.6 148.0 L 485.0 156.1 L 489.1 160.5 L 489.1 157.4 L 498.5 162.9 L 493.4 171.4 L 491.2 167.4 L 491.8 172.4 L 483.2 171.1 L 484.2 190.4 L 489.1 204.0 L 507.5 218.8 L 560.3 243.4 L 586.6 298.4 L 614.3 319.7 L 622.8 322.5 L 624.6 327.7 L 648.9 336.7 L 704.6 337.2 L 707.1 345.2 L 690.9 354.6 L 694.3 363.5 L 757.0 385.0 L 780.9 399.4 L 811.2 409.7 L 813.0 415.0 L 824.5 420.7 L 840.3 438.9 L 834.4 448.1 L 833.1 457.3 L 814.9 451.9 L 803.0 430.5 L 776.5 427.9 L 765.1 422.8 L 772.2 418.4 L 752.3 418.7 L 731.1 442.0 L 732.7 448.8 L 724.5 459.7 L 727.8 466.2 L 741.3 469.0 L 762.8 480.8 L 760.2 488.6 L 760.8 498.8 L 765.5 502.3 L 763.6 506.3 L 759.6 509.8 L 744.5 508.7 L 730.0 515.6 L 727.1 521.1 L 729.1 536.6 L 706.2 553.0 L 701.0 564.6 L 678.5 563.8 L 675.6 548.6 L 685.9 544.0 L 691.9 531.6 L 687.2 524.1 L 705.3 519.4 L 709.2 512.2 L 701.3 499.7 L 696.3 478.9 L 685.5 464.3 L 683.7 453.1 L 675.1 442.4 L 662.9 447.2 L 654.3 445.2 L 646.7 437.2 L 634.3 433.1 L 639.3 424.1 L 627.0 408.6 L 601.9 414.3 L 609.4 405.2 L 599.1 398.9 L 585.0 401.7 L 583.5 394.2 L 566.4 375.3 L 556.2 377.9 L 541.5 372.8 L 527.7 376.7 L 519.1 366.9 L 504.3 364.1 L 481.7 347.6 L 477.7 339.5 L 469.2 333.0 L 458.1 330.6 L 448.5 316.6 L 432.4 309.3 L 416.9 310.2 L 416.5 307.3 L 421.6 305.1 L 419.9 300.3 L 407.6 290.1 L 404.6 288.9 L 395.5 286.6 L 397.3 280.1 L 382.3 278.8 L 383.9 261.3 L 371.8 247.3 L 368.1 227.1 L 358.9 216.8 L 344.8 212.1 L 344.1 215.9 L 309.8 198.1 L 308.6 200.8 L 283.0 193.6 L 266.1 200.9 L 243.3 224.2 L 211.0 230.2 L 209.9 227.4 L 209.6 226.0 L 221.7 214.4 L 219.8 208.2 L 201.8 211.2 L 180.8 204.0 L 174.9 197.6 L 177.6 193.4 L 172.9 187.8 L 180.0 179.3 L 185.4 179.2 L 182.6 171.0 L 167.7 166.4 L 166.5 160.4 L 159.6 155.2 L 167.2 152.2 L 173.4 153.7 L 188.5 146.3 L 191.5 137.7 L 181.3 131.9 L 180.2 124.5 L 171.8 121.3 L 169.8 116.7 L 183.6 108.3 Z" />
  <path d="M 669.6 543.8 L 676.5 545.9 L 651.6 574.8 L 644.7 591.0 L 645.3 599.4 L 653.8 603.6 L 649.9 606.4 L 658.4 617.6 L 648.5 622.6 L 644.8 638.0 L 610.1 630.1 L 598.2 615.8 L 566.0 608.5 L 535.1 590.5 L 526.6 590.1 L 521.9 585.8 L 505.7 586.0 L 492.4 572.7 L 496.2 559.9 L 508.3 554.8 L 509.8 550.1 L 519.5 559.5 L 528.6 556.4 L 530.9 550.3 L 543.3 548.5 L 547.5 555.2 L 554.5 554.8 L 570.3 562.6 L 583.5 558.3 L 611.5 558.6 L 634.1 550.4 L 644.4 553.8 L 649.6 552.2 L 653.0 546.0 L 656.1 549.3 L 669.6 543.8 Z" />
  <path d="M 341.8 415.0 L 342.3 420.8 L 332.4 431.8 L 338.4 442.1 L 331.0 483.7 L 332.8 487.0 L 328.9 495.5 L 326.2 498.0 L 313.3 491.4 L 306.1 493.3 L 297.4 488.9 L 301.1 491.2 L 297.6 495.6 L 298.0 504.3 L 288.2 511.0 L 280.4 507.9 L 276.1 511.8 L 271.4 500.8 L 260.7 491.3 L 264.1 486.8 L 260.8 482.4 L 265.9 471.0 L 264.8 460.7 L 271.8 463.9 L 268.8 463.2 L 268.3 462.8 L 271.2 455.3 L 262.0 451.8 L 261.0 444.9 L 267.4 440.9 L 266.6 430.2 L 261.5 426.8 L 261.1 420.1 L 256.1 412.8 L 247.8 413.0 L 250.5 391.8 L 257.2 398.3 L 269.2 399.6 L 286.4 392.7 L 309.8 374.7 L 312.5 378.6 L 320.7 379.4 L 321.9 384.5 L 323.4 381.4 L 328.5 382.5 L 325.8 388.8 L 334.4 389.6 L 325.4 393.9 L 333.3 394.3 L 331.7 395.8 L 337.9 398.6 L 334.2 401.2 L 341.8 415.0 Z" />
  <path d="M 379.0 284.3 L 377.5 292.1 L 373.0 288.9 L 359.8 289.3 L 361.3 286.2 L 379.0 284.3 Z" />
  </g>
</svg>
