<?xml version="1.0" encoding="UTF-8"?>
<svg xmlns="http://www.w3.org/2000/svg" viewBox="0 0 1000 680" role="img" aria-label="Japan silhouette">
  <title>Japan silhouette</title>
  <desc>Country silhouette derived from Natural Earth public domain admin 0 countries data.</desc>
  <g fill="#8a8170" stroke="#6f6759" stroke-width="2.4" stroke-linejoin="round" opacity="0.48">
  <path d="M 462.9 352.4 L 458.9 355.9 L 458.0 353.0 L 456.2 357.0 L 453.2 357.6 L 455.8 355.0 L 453.7 354.0 L 441.4 359.3 L 432.7 355.1 L 424.2 371.2 L 425.8 368.5 L 415.8 363.3 L 402.2 367.0 L 396.0 363.6 L 392.6 367.3 L 391.4 357.1 L 395.9 354.2 L 393.5 353.2 L 406.6 353.0 L 411.7 346.4 L 419.0 344.9 L 440.9 328.6 L 440.8 324.5 L 453.6 320.0 L 462.3 324.1 L 513.5 315.2 L 515.7 318.1 L 512.4 321.6 L 516.0 324.4 L 520.1 320.0 L 521.9 323.1 L 530.5 321.9 L 529.9 318.8 L 534.6 319.2 L 535.7 315.4 L 537.1 318.3 L 534.1 308.9 L 554.5 288.4 L 556.1 270.8 L 572.7 266.3 L 570.3 272.0 L 561.8 274.2 L 559.3 278.7 L 564.5 278.1 L 563.3 285.4 L 572.5 287.5 L 575.7 282.7 L 606.6 270.2 L 615.2 257.6 L 630.7 249.1 L 648.6 210.6 L 648.0 201.7 L 638.9 197.8 L 643.5 197.2 L 647.6 190.1 L 643.3 179.7 L 654.8 174.0 L 658.7 168.0 L 654.2 165.2 L 656.8 161.3 L 665.0 163.3 L 667.0 172.8 L 672.2 168.4 L 678.8 172.3 L 683.1 164.4 L 681.1 161.3 L 668.7 164.6 L 672.7 153.6 L 683.0 158.8 L 688.2 156.6 L 687.5 177.9 L 698.6 189.7 L 702.2 207.6 L 705.3 209.3 L 702.0 211.8 L 704.9 211.7 L 700.7 215.5 L 700.9 222.0 L 693.2 225.2 L 694.2 228.9 L 691.8 228.1 L 688.3 234.3 L 690.0 245.3 L 683.8 241.4 L 677.5 242.7 L 674.3 248.0 L 675.5 277.1 L 663.1 300.9 L 671.9 316.7 L 660.8 321.0 L 657.8 331.9 L 645.2 339.5 L 640.4 338.1 L 643.6 336.9 L 641.1 328.0 L 650.1 321.0 L 640.7 318.6 L 641.3 322.5 L 637.2 324.1 L 638.4 332.9 L 634.5 328.3 L 624.4 329.5 L 621.4 334.8 L 623.2 340.5 L 614.6 348.2 L 612.5 337.4 L 616.6 336.0 L 613.7 333.5 L 606.7 334.2 L 597.7 348.2 L 578.5 345.9 L 563.6 348.7 L 572.7 344.5 L 563.7 343.0 L 562.6 339.0 L 562.4 345.4 L 559.1 344.2 L 558.4 334.7 L 549.7 345.8 L 560.8 352.7 L 560.2 357.4 L 554.9 355.5 L 544.6 359.8 L 541.3 362.8 L 542.8 365.7 L 528.4 380.8 L 508.8 368.3 L 512.4 360.7 L 508.8 357.4 L 517.5 351.3 L 518.7 345.5 L 508.4 347.4 L 492.8 342.8 L 477.3 348.5 L 480.4 348.6 L 477.3 352.3 L 471.3 350.1 L 462.9 352.4 Z" />
  <path d="M 808.9 101.8 L 802.3 107.9 L 791.3 109.1 L 787.8 112.9 L 768.4 112.6 L 756.2 117.0 L 741.1 131.7 L 738.1 142.7 L 698.2 123.9 L 687.3 124.9 L 674.6 132.3 L 667.8 124.9 L 661.3 124.4 L 655.4 133.4 L 680.9 146.3 L 675.5 148.7 L 665.8 145.5 L 653.1 157.5 L 646.7 152.4 L 651.3 141.2 L 640.7 132.0 L 643.8 122.1 L 655.1 119.4 L 661.9 112.7 L 657.3 103.5 L 680.0 108.7 L 687.1 103.7 L 684.7 92.7 L 693.2 86.4 L 697.6 66.6 L 691.6 49.5 L 693.4 44.3 L 701.1 42.1 L 730.8 68.2 L 753.1 79.3 L 751.8 81.4 L 762.7 81.0 L 763.7 84.1 L 766.2 81.3 L 770.0 85.8 L 780.1 87.0 L 797.0 74.9 L 789.4 90.9 L 798.4 104.1 L 794.6 103.5 L 801.9 106.2 L 808.9 101.8 Z" />
  <path d="M 413.5 407.6 L 404.5 438.6 L 397.0 436.4 L 395.4 438.8 L 398.7 441.2 L 385.4 448.9 L 389.2 439.3 L 383.5 432.6 L 388.2 433.2 L 388.7 429.1 L 385.0 429.0 L 381.8 434.6 L 385.5 441.4 L 383.4 444.6 L 373.2 442.1 L 370.3 437.5 L 373.4 438.3 L 376.3 433.2 L 371.8 426.9 L 372.0 418.3 L 381.3 411.5 L 385.7 402.8 L 379.5 403.6 L 384.1 399.0 L 373.7 387.7 L 369.9 396.4 L 376.5 397.0 L 377.1 401.7 L 371.6 404.3 L 372.8 399.9 L 369.6 398.7 L 359.7 405.0 L 363.0 400.7 L 356.8 395.0 L 358.0 390.3 L 361.2 396.4 L 367.0 397.3 L 365.4 392.5 L 354.4 386.6 L 355.2 382.5 L 362.8 385.1 L 362.8 377.5 L 367.4 380.4 L 372.8 374.3 L 377.9 376.0 L 375.1 373.8 L 380.7 369.0 L 395.2 365.9 L 393.9 370.1 L 397.9 375.4 L 413.7 374.2 L 415.7 379.4 L 409.3 385.3 L 420.3 385.5 L 417.7 389.4 L 425.3 394.5 L 413.5 407.6 Z" />
  <path d="M 498.4 369.7 L 487.8 376.9 L 484.0 386.3 L 471.8 377.9 L 459.2 382.7 L 451.1 393.3 L 451.1 401.0 L 440.6 399.9 L 442.9 395.5 L 437.1 396.0 L 436.2 391.8 L 433.7 392.4 L 436.8 389.2 L 434.1 387.2 L 438.4 386.6 L 433.6 384.0 L 434.8 380.5 L 423.3 383.2 L 442.0 372.9 L 448.2 361.5 L 454.6 366.8 L 465.4 365.9 L 469.0 362.7 L 466.7 357.6 L 477.3 354.4 L 497.2 358.2 L 498.4 369.7 Z" />
  <path d="M 320.4 566.8 L 306.7 576.8 L 308.7 580.5 L 301.1 586.8 L 303.1 577.1 L 309.8 573.3 L 307.5 569.7 L 312.5 571.1 L 318.0 564.3 L 320.2 566.3 L 320.4 566.8 Z" />
  <path d="M 604.1 250.8 L 607.3 250.7 L 605.2 255.4 L 597.4 258.3 L 599.9 248.1 L 605.6 243.7 L 604.1 250.8 Z" />
  <path d="M 358.8 520.1 L 349.5 529.7 L 343.0 526.1 L 358.8 520.1 Z" />
  <path d="M 507.2 347.9 L 505.9 357.3 L 499.5 359.6 L 498.2 355.7 L 507.2 347.9 Z" />
  <path d="M 371.5 405.7 L 372.7 411.5 L 366.8 415.6 L 367.0 406.0 L 371.5 405.7 Z" />
  <path d="M 385.9 466.5 L 380.6 470.7 L 377.5 466.0 L 380.9 463.9 L 385.9 466.5 Z" />
  <path d="M 351.6 347.5 L 350.2 355.4 L 345.3 354.9 L 348.0 346.7 L 351.9 345.3 L 351.6 347.5 Z" />
  <path d="M 396.4 453.5 L 396.6 459.9 L 391.4 467.4 L 396.4 453.5 Z" />
  <path d="M 335.5 402.1 L 327.7 403.8 L 329.4 399.0 L 333.6 398.5 L 335.5 402.1 Z" />
  <path d="M 347.7 357.1 L 343.7 361.9 L 344.7 355.7 L 347.7 357.1 Z" />
  <path d="M 461.3 301.2 L 460.2 304.4 L 456.3 302.8 L 459.2 299.3 L 461.3 301.2 Z" />
  <path d="M 193.6 634.2 L 196.9 634.9 L 195.2 638.0 L 189.5 636.9 L 193.6 634.2 Z" />
  <path d="M 338.6 538.4 L 336.9 541.9 L 336.0 536.1 L 338.6 538.4 Z" />
  <path d="M 684.4 51.8 L 682.3 53.8 L 679.0 50.7 L 684.4 51.8 Z" />
  </g>
</svg>
