<?xml version="1.0" encoding="UTF-8"?>
<svg xmlns="http://www.w3.org/2000/svg" viewBox="0 0 1000 680" role="img" aria-label="South Korea silhouette">
  <title>South Korea silhouette</title>
  <desc>Country silhouette derived from Natural Earth public domain admin 0 countries data.</desc>
  <g fill="#8a8170" stroke="#6f6759" stroke-width="2.4" stroke-linejoin="round" opacity="0.48">
  <path d="M 557.1 42.0 L 586.4 94.6 L 633.9 145.8 L 634.9 153.1 L 663.2 189.4 L 668.4 206.1 L 674.1 212.4 L 672.1 218.4 L 678.9 250.0 L 673.2 262.5 L 675.2 285.4 L 669.3 294.8 L 668.8 308.1 L 674.1 319.5 L 668.6 325.7 L 676.6 331.0 L 687.8 321.2 L 691.3 328.4 L 689.6 330.5 L 685.6 336.9 L 675.5 370.2 L 678.1 374.2 L 676.7 383.7 L 672.2 388.2 L 667.8 381.5 L 669.9 387.8 L 666.1 390.4 L 666.4 401.2 L 656.4 405.3 L 648.2 423.0 L 640.0 423.6 L 637.9 429.9 L 633.8 426.8 L 629.2 433.5 L 626.5 431.7 L 626.6 432.8 L 626.9 435.0 L 622.3 434.5 L 622.2 425.0 L 621.2 426.2 L 617.9 431.1 L 615.6 426.7 L 614.7 428.5 L 613.9 431.1 L 611.2 430.8 L 603.9 430.9 L 603.5 428.9 L 602.8 427.8 L 601.8 430.9 L 600.7 431.3 L 593.9 429.5 L 593.9 424.7 L 593.5 424.3 L 591.7 427.3 L 584.9 424.3 L 583.1 416.6 L 580.5 420.4 L 588.6 433.3 L 569.5 429.2 L 569.9 431.8 L 559.7 434.7 L 557.8 438.6 L 570.6 434.4 L 571.0 440.5 L 563.1 441.9 L 564.5 452.1 L 569.1 452.1 L 567.6 454.3 L 564.8 457.3 L 554.4 454.0 L 553.8 445.8 L 552.0 447.3 L 550.2 450.1 L 541.6 446.9 L 539.7 452.1 L 523.1 447.6 L 524.6 431.0 L 517.1 436.3 L 519.1 440.2 L 517.7 441.0 L 514.8 440.9 L 511.9 442.4 L 508.8 437.9 L 505.0 445.9 L 488.9 444.4 L 486.2 441.1 L 479.9 450.3 L 472.1 445.9 L 470.9 447.3 L 470.3 449.5 L 479.3 460.7 L 492.4 456.6 L 488.6 470.2 L 479.2 469.6 L 475.7 473.2 L 477.5 482.0 L 468.8 477.1 L 471.4 467.9 L 464.4 452.1 L 460.3 457.7 L 447.3 459.4 L 453.9 461.9 L 446.5 466.4 L 450.6 466.8 L 451.8 473.0 L 462.5 484.9 L 445.5 485.5 L 446.5 489.0 L 455.4 490.5 L 443.2 497.8 L 443.5 499.7 L 444.9 501.0 L 431.7 489.8 L 426.8 493.5 L 420.8 490.5 L 430.6 479.9 L 428.4 486.7 L 431.6 486.6 L 434.3 485.8 L 433.6 476.2 L 434.2 475.3 L 437.3 472.4 L 441.7 478.3 L 446.5 473.2 L 443.6 468.5 L 441.5 469.8 L 439.1 470.6 L 437.1 469.3 L 434.4 465.7 L 429.1 473.9 L 422.1 474.3 L 408.3 482.6 L 406.5 490.5 L 400.5 495.4 L 400.7 499.9 L 395.7 500.5 L 396.0 504.0 L 386.3 500.3 L 385.9 487.4 L 382.8 485.5 L 381.5 492.4 L 378.1 493.3 L 378.5 494.7 L 381.0 497.2 L 376.8 499.3 L 375.2 500.5 L 377.2 502.3 L 366.9 506.4 L 363.6 516.9 L 354.6 517.6 L 355.3 512.4 L 350.0 511.6 L 354.2 504.4 L 348.5 498.0 L 349.0 495.3 L 351.2 494.0 L 354.1 493.5 L 356.8 493.5 L 353.8 491.2 L 356.6 488.0 L 340.3 491.2 L 335.3 485.7 L 329.8 485.2 L 332.8 483.0 L 327.1 479.3 L 329.2 467.5 L 336.5 473.2 L 338.0 483.0 L 348.4 485.7 L 343.0 478.2 L 339.7 480.0 L 338.9 471.8 L 341.9 471.5 L 346.5 472.3 L 347.1 476.2 L 356.2 481.4 L 355.7 478.2 L 365.8 480.7 L 353.2 471.0 L 337.3 467.6 L 347.9 464.3 L 356.1 467.9 L 357.1 462.5 L 370.4 461.1 L 360.6 459.6 L 359.7 450.9 L 353.7 464.0 L 350.8 460.5 L 338.4 463.0 L 344.0 452.1 L 341.0 445.4 L 345.3 442.1 L 338.0 443.5 L 337.2 448.0 L 332.0 446.9 L 330.5 443.1 L 335.7 443.1 L 335.4 440.7 L 338.4 438.2 L 332.6 430.9 L 329.0 434.2 L 325.3 426.5 L 326.8 425.0 L 329.1 424.7 L 331.1 425.6 L 332.0 427.3 L 335.0 422.8 L 335.2 429.5 L 342.5 433.3 L 344.0 437.9 L 347.0 429.0 L 338.1 421.0 L 337.3 413.7 L 331.3 414.4 L 338.8 412.3 L 336.5 411.5 L 342.5 399.4 L 347.7 402.1 L 343.3 396.8 L 351.4 382.4 L 367.9 377.1 L 373.4 381.4 L 372.0 377.3 L 370.9 375.4 L 369.3 374.6 L 353.7 376.7 L 348.3 373.9 L 348.6 371.0 L 348.7 369.8 L 362.9 361.6 L 370.1 353.0 L 383.2 356.6 L 384.2 353.1 L 374.6 346.9 L 389.3 341.9 L 364.6 342.3 L 364.5 340.4 L 364.2 337.8 L 355.1 336.8 L 354.6 333.5 L 379.1 331.4 L 393.0 323.4 L 373.4 330.2 L 362.1 315.9 L 355.5 313.4 L 351.5 315.9 L 352.0 312.6 L 355.7 311.1 L 359.0 310.3 L 363.6 311.4 L 356.1 306.1 L 361.3 297.9 L 353.8 294.8 L 361.3 291.5 L 354.5 289.2 L 352.1 284.1 L 365.2 278.2 L 352.0 281.0 L 350.4 275.6 L 352.7 273.5 L 353.8 272.1 L 349.0 270.9 L 347.6 264.8 L 354.4 261.5 L 350.5 258.9 L 351.6 257.6 L 353.1 256.6 L 352.1 255.1 L 349.5 254.7 L 352.3 251.2 L 350.0 248.2 L 345.4 251.5 L 343.9 263.6 L 337.7 261.1 L 338.2 255.2 L 338.8 253.1 L 335.0 248.9 L 330.5 253.4 L 335.0 263.2 L 329.8 266.2 L 327.5 251.2 L 316.9 256.3 L 314.6 253.1 L 320.8 250.4 L 314.7 246.7 L 311.9 252.9 L 311.4 246.6 L 315.5 240.6 L 320.8 244.4 L 319.6 243.1 L 318.5 241.4 L 323.7 240.6 L 320.9 240.4 L 319.2 239.8 L 318.5 232.9 L 320.3 231.7 L 323.0 230.9 L 322.3 233.6 L 322.6 234.3 L 327.6 234.2 L 331.3 224.0 L 332.9 233.2 L 328.4 242.0 L 336.5 243.6 L 334.2 239.7 L 333.4 237.2 L 341.8 236.1 L 338.8 233.9 L 343.4 228.9 L 336.2 225.3 L 338.7 223.1 L 334.2 221.8 L 335.0 221.0 L 336.1 220.4 L 346.3 220.0 L 344.8 224.6 L 349.9 227.4 L 350.5 237.8 L 354.4 226.1 L 361.3 231.6 L 351.5 220.7 L 360.3 222.1 L 352.3 214.4 L 366.1 220.8 L 366.7 230.1 L 372.2 221.0 L 384.8 225.3 L 384.9 227.6 L 383.2 232.3 L 388.5 230.3 L 390.8 247.4 L 392.2 239.2 L 394.4 239.7 L 396.7 239.9 L 392.9 236.6 L 391.8 234.7 L 406.0 229.3 L 406.5 224.0 L 411.8 221.1 L 405.2 222.6 L 403.8 227.9 L 401.2 228.5 L 397.6 228.1 L 387.9 220.1 L 397.4 218.8 L 395.1 209.9 L 390.6 216.3 L 380.3 215.0 L 381.3 207.5 L 392.2 203.9 L 392.3 200.7 L 390.8 201.4 L 388.5 203.0 L 385.5 200.0 L 372.6 206.1 L 375.0 202.3 L 370.4 201.1 L 376.3 197.0 L 369.7 192.5 L 381.6 192.5 L 383.2 196.2 L 387.3 190.3 L 393.0 191.0 L 373.1 183.9 L 376.1 178.2 L 364.9 178.7 L 366.0 176.7 L 367.5 174.9 L 362.7 168.5 L 368.1 165.0 L 363.4 164.7 L 356.1 136.0 L 370.0 137.2 L 370.0 146.5 L 380.3 150.3 L 378.2 148.6 L 371.9 145.0 L 374.2 129.3 L 370.6 129.5 L 369.9 120.0 L 370.5 117.4 L 381.0 112.9 L 404.1 86.5 L 410.1 82.6 L 417.1 79.2 L 448.6 75.6 L 459.0 78.1 L 489.9 74.8 L 495.1 78.3 L 521.4 77.2 L 541.8 66.7 L 547.9 57.4 L 547.9 46.4 L 550.9 44.5 L 557.1 42.0 Z" />
  <path d="M 401.2 607.2 L 389.7 625.6 L 364.0 633.3 L 334.0 633.5 L 327.0 638.0 L 315.0 626.7 L 331.4 608.7 L 350.6 602.5 L 384.4 597.8 L 401.2 607.2 Z" />
  <path d="M 599.2 454.4 L 596.1 457.4 L 598.5 463.0 L 592.4 461.1 L 589.2 466.7 L 593.2 469.0 L 581.1 472.4 L 584.9 470.2 L 578.5 464.0 L 583.4 458.1 L 575.1 461.1 L 570.6 454.4 L 580.0 449.9 L 587.9 452.1 L 584.1 445.0 L 585.5 445.1 L 593.2 441.6 L 594.2 436.4 L 597.6 447.1 L 595.4 453.6 L 599.2 454.4 Z" />
  <path d="M 339.1 495.1 L 335.3 505.0 L 331.3 503.3 L 320.4 510.5 L 313.2 510.9 L 314.2 507.2 L 308.7 505.6 L 322.2 491.9 L 326.8 492.5 L 324.5 486.7 L 335.7 489.8 L 335.8 490.8 L 339.1 495.1 Z" />
  <path d="M 524.6 460.4 L 523.1 473.2 L 514.3 473.0 L 510.1 465.6 L 505.1 471.6 L 501.8 469.6 L 498.3 454.4 L 506.2 446.6 L 510.2 449.5 L 506.6 454.4 L 508.2 458.1 L 512.8 461.2 L 524.6 460.4 Z" />
  <path d="M 353.1 154.8 L 338.0 151.1 L 343.1 148.8 L 337.6 140.5 L 338.4 133.0 L 339.5 132.6 L 342.0 130.3 L 354.1 136.1 L 356.9 151.1 L 353.1 154.8 Z" />
  </g>
</svg>
